<svg width="470" height="470" viewBox="0 0 470 470" fill="none" xmlns="http://www.w3.org/2000/svg">
    <path
        d="M123.833 171.492C124.162 126.734 141.911 83.8646 173.318 51.9746H173.261L52.0067 173.228H52.0646C51.6132 173.584 51.1877 173.97 50.7913 174.386C21.3025 203.836 3.4239 242.934 0.43643 284.503C-2.55101 326.071 9.5532 367.324 34.5277 400.688L156.997 278.219L158.27 277.003C135.444 246.606 123.334 209.502 123.833 171.492Z"
        fill="#0C8C5E" />
    <path
        d="M418.257 296.971C395.05 319.714 365.919 335.479 334.185 342.469C302.452 349.458 269.393 347.39 238.778 336.501C222.455 330.707 207.114 322.451 193.286 312.019L69.5439 435.704C102.922 460.616 144.151 472.682 185.694 469.695C227.237 466.709 266.316 448.87 295.788 419.44L418.257 296.971Z"
        fill="#0C8C5E" />
    <path
        d="M470.231 173.228V8.0001C470.231 3.5818 466.649 8.67365e-05 462.231 8.67365e-05H297.003C274.252 -0.0227133 251.721 4.4497 230.704 13.1605C209.687 21.8713 190.598 34.6487 174.534 50.7589L173.318 51.9746C152.144 73.471 136.994 100.157 129.389 129.357C143.156 125.792 157.304 123.907 171.524 123.743C209.536 123.295 246.629 135.422 277.035 158.238C304.362 178.617 325.045 206.63 336.476 238.746C348.125 271.571 349.658 307.137 340.874 340.842C370.079 333.25 396.769 318.098 418.257 296.913L419.472 295.755C435.589 279.684 448.371 260.586 457.082 239.558C465.793 218.531 470.262 195.989 470.231 173.228Z"
        fill="#18E299" />
</svg>